<svg xmlns="http://www.w3.org/2000/svg" xmlns:xlink="http://www.w3.org/1999/xlink" width="500" zoomAndPan="magnify" viewBox="0 0 375 374.999991" height="500" preserveAspectRatio="xMidYMid meet" version="1.0"><defs><g/><clipPath id="3c32d9ecc4"><path d="M 27.507812 147 L 347.757812 147 L 347.757812 326 L 27.507812 326 Z M 27.507812 147 " clip-rule="nonzero"/></clipPath></defs><g fill="#081c47" fill-opacity="1"><g transform="translate(58.455237, 360.004466)"><g><path d="M 10.125 0 L 2.09375 0 L 2.09375 -26.5625 L 10.125 -26.5625 C 14.65625 -26.5625 18.125 -25.421875 20.53125 -23.140625 C 22.945312 -20.867188 24.15625 -17.597656 24.15625 -13.328125 C 24.15625 -9.035156 22.945312 -5.738281 20.53125 -3.4375 C 18.125 -1.144531 14.65625 0 10.125 0 Z M 8.3125 -20.984375 L 8.3125 -5.5625 L 10.0625 -5.5625 C 12.613281 -5.5625 14.5625 -6.179688 15.90625 -7.421875 C 17.25 -8.671875 17.921875 -10.640625 17.921875 -13.328125 C 17.921875 -15.859375 17.210938 -17.765625 15.796875 -19.046875 C 14.390625 -20.335938 12.476562 -20.984375 10.0625 -20.984375 Z M 8.3125 -20.984375 "/></g></g></g><g fill="#081c47" fill-opacity="1"><g transform="translate(90.696232, 360.004466)"><g><path d="M 20.21875 0 L 2.09375 0 L 2.09375 -26.5625 L 20.21875 -26.5625 L 20.21875 -20.984375 L 8.3125 -20.984375 L 8.3125 -16.046875 L 19.078125 -16.046875 L 19.078125 -10.515625 L 8.3125 -10.515625 L 8.3125 -5.5625 L 20.21875 -5.5625 Z M 20.21875 0 "/></g></g></g><g fill="#081c47" fill-opacity="1"><g transform="translate(119.38585, 360.004466)"><g><path d="M 8.3125 0 L 2.09375 0 L 2.09375 -26.5625 L 8.421875 -26.5625 L 18.625 -10.4375 L 18.625 -26.5625 L 24.859375 -26.5625 L 24.859375 0 L 18.515625 0 L 8.3125 -16.21875 Z M 8.3125 0 "/></g></g></g><g fill="#081c47" fill-opacity="1"><g transform="translate(153.298088, 360.004466)"><g><path d="M 14 0 L 7.765625 0 L 7.765625 -20.984375 L 0.28125 -20.984375 L 0.28125 -26.5625 L 21.484375 -26.5625 L 21.484375 -20.984375 L 14 -20.984375 Z M 14 0 "/></g></g></g><g fill="#081c47" fill-opacity="1"><g transform="translate(182.022516, 360.004466)"><g><path d="M 8.3125 0 L 2.09375 0 L 2.09375 -26.5625 L 8.3125 -26.5625 Z M 8.3125 0 "/></g></g></g><g fill="#081c47" fill-opacity="1"><g transform="translate(199.431257, 360.004466)"><g><path d="M 13.265625 0.59375 C 12.015625 0.59375 10.703125 0.4375 9.328125 0.125 C 7.960938 -0.1875 6.675781 -0.703125 5.46875 -1.421875 C 4.257812 -2.140625 3.253906 -3.117188 2.453125 -4.359375 C 1.648438 -5.609375 1.191406 -7.160156 1.078125 -9.015625 L 7.515625 -9.015625 C 7.816406 -7.859375 8.265625 -6.957031 8.859375 -6.3125 C 9.453125 -5.675781 10.128906 -5.234375 10.890625 -4.984375 C 11.660156 -4.742188 12.441406 -4.625 13.234375 -4.625 C 13.953125 -4.625 14.625 -4.726562 15.25 -4.9375 C 15.875 -5.144531 16.382812 -5.460938 16.78125 -5.890625 C 17.175781 -6.328125 17.375 -6.894531 17.375 -7.59375 C 17.375 -8.289062 17.101562 -8.84375 16.5625 -9.25 C 16.03125 -9.65625 15.320312 -9.984375 14.4375 -10.234375 C 13.5625 -10.492188 12.601562 -10.738281 11.5625 -10.96875 C 10.445312 -11.21875 9.3125 -11.503906 8.15625 -11.828125 C 7.007812 -12.160156 5.953125 -12.609375 4.984375 -13.171875 C 4.023438 -13.742188 3.25 -14.492188 2.65625 -15.421875 C 2.070312 -16.347656 1.78125 -17.539062 1.78125 -19 C 1.78125 -20.832031 2.21875 -22.347656 3.09375 -23.546875 C 3.976562 -24.742188 5.164062 -25.640625 6.65625 -26.234375 C 8.15625 -26.828125 9.8125 -27.125 11.625 -27.125 C 13.476562 -27.125 15.21875 -26.796875 16.84375 -26.140625 C 18.46875 -25.492188 19.828125 -24.515625 20.921875 -23.203125 C 22.015625 -21.890625 22.695312 -20.25 22.96875 -18.28125 L 16.53125 -18.28125 C 16.226562 -19.414062 15.632812 -20.300781 14.75 -20.9375 C 13.875 -21.570312 12.785156 -21.890625 11.484375 -21.890625 C 10.609375 -21.890625 9.800781 -21.703125 9.0625 -21.328125 C 8.332031 -20.960938 7.96875 -20.363281 7.96875 -19.53125 C 7.96875 -18.90625 8.222656 -18.394531 8.734375 -18 C 9.242188 -17.601562 9.925781 -17.28125 10.78125 -17.03125 C 11.644531 -16.789062 12.578125 -16.554688 13.578125 -16.328125 C 14.691406 -16.066406 15.835938 -15.769531 17.015625 -15.4375 C 18.203125 -15.101562 19.296875 -14.640625 20.296875 -14.046875 C 21.296875 -13.453125 22.101562 -12.660156 22.71875 -11.671875 C 23.332031 -10.691406 23.640625 -9.4375 23.640625 -7.90625 C 23.640625 -6.164062 23.21875 -4.660156 22.375 -3.390625 C 21.539062 -2.128906 20.351562 -1.148438 18.8125 -0.453125 C 17.269531 0.242188 15.421875 0.59375 13.265625 0.59375 Z M 13.265625 0.59375 "/></g></g></g><g fill="#081c47" fill-opacity="1"><g transform="translate(231.184817, 360.004466)"><g><path d="M 14 0 L 7.765625 0 L 7.765625 -20.984375 L 0.28125 -20.984375 L 0.28125 -26.5625 L 21.484375 -26.5625 L 21.484375 -20.984375 L 14 -20.984375 Z M 14 0 "/></g></g></g><g fill="#081c47" fill-opacity="1"><g transform="translate(259.909238, 360.004466)"><g><path d="M 19.21875 -11.390625 L 23.8125 0 L 17.234375 0 L 13.375 -10.234375 L 8.3125 -10.234375 L 8.3125 0 L 2.09375 0 L 2.09375 -26.5625 L 14.625 -26.5625 C 16.25 -26.5625 17.691406 -26.289062 18.953125 -25.75 C 20.222656 -25.21875 21.21875 -24.363281 21.9375 -23.1875 C 22.65625 -22.019531 23.015625 -20.476562 23.015625 -18.5625 C 23.015625 -16.863281 22.671875 -15.410156 21.984375 -14.203125 C 21.296875 -12.992188 20.375 -12.054688 19.21875 -11.390625 Z M 13.75 -20.984375 L 8.3125 -20.984375 L 8.3125 -15.625 L 13.75 -15.625 C 15.8125 -15.625 16.84375 -16.53125 16.84375 -18.34375 C 16.84375 -20.101562 15.8125 -20.984375 13.75 -20.984375 Z M 13.75 -20.984375 "/></g></g></g><g fill="#081c47" fill-opacity="1"><g transform="translate(291.523528, 360.004466)"><g><path d="M 15.765625 0 L 9.21875 0 L 9.21875 -10.546875 L -0.28125 -26.5625 L 7 -26.5625 L 12.5 -16.578125 L 18 -26.5625 L 25.28125 -26.5625 L 15.765625 -10.546875 Z M 15.765625 0 "/></g></g></g><g fill="#3579bc" fill-opacity="1"><g transform="translate(113.563803, 372.513342)"><g><path d="M 4.03125 0 L 2.6875 0 L 2.6875 -6.921875 L 0.125 -6.921875 L 0.125 -8.125 L 6.625 -8.125 L 6.625 -6.921875 L 4.03125 -6.921875 Z M 4.03125 0 "/></g></g></g><g fill="#3579bc" fill-opacity="1"><g transform="translate(128.82442, 372.513342)"><g><path d="M 4.34375 0.140625 C 3.6875 0.140625 3.113281 0.0234375 2.625 -0.203125 C 2.132812 -0.429688 1.726562 -0.738281 1.40625 -1.125 C 1.082031 -1.519531 0.84375 -1.96875 0.6875 -2.46875 C 0.53125 -2.976562 0.453125 -3.515625 0.453125 -4.078125 C 0.453125 -4.628906 0.53125 -5.15625 0.6875 -5.65625 C 0.84375 -6.164062 1.082031 -6.613281 1.40625 -7 C 1.726562 -7.394531 2.132812 -7.703125 2.625 -7.921875 C 3.113281 -8.148438 3.6875 -8.265625 4.34375 -8.265625 C 5.007812 -8.265625 5.582031 -8.148438 6.0625 -7.921875 C 6.550781 -7.703125 6.957031 -7.394531 7.28125 -7 C 7.601562 -6.613281 7.84375 -6.164062 8 -5.65625 C 8.15625 -5.15625 8.234375 -4.628906 8.234375 -4.078125 C 8.234375 -3.515625 8.15625 -2.976562 8 -2.46875 C 7.84375 -1.96875 7.601562 -1.519531 7.28125 -1.125 C 6.957031 -0.738281 6.550781 -0.429688 6.0625 -0.203125 C 5.582031 0.0234375 5.007812 0.140625 4.34375 0.140625 Z M 4.34375 -1.078125 C 4.882812 -1.078125 5.335938 -1.203125 5.703125 -1.453125 C 6.078125 -1.710938 6.359375 -2.066406 6.546875 -2.515625 C 6.742188 -2.972656 6.84375 -3.492188 6.84375 -4.078125 C 6.84375 -4.648438 6.742188 -5.160156 6.546875 -5.609375 C 6.359375 -6.054688 6.078125 -6.40625 5.703125 -6.65625 C 5.335938 -6.914062 4.882812 -7.046875 4.34375 -7.046875 C 3.8125 -7.046875 3.359375 -6.914062 2.984375 -6.65625 C 2.609375 -6.40625 2.328125 -6.054688 2.140625 -5.609375 C 1.953125 -5.160156 1.859375 -4.648438 1.859375 -4.078125 C 1.859375 -3.492188 1.953125 -2.972656 2.140625 -2.515625 C 2.328125 -2.066406 2.609375 -1.710938 2.984375 -1.453125 C 3.359375 -1.203125 3.8125 -1.078125 4.34375 -1.078125 Z M 4.34375 -1.078125 "/></g></g></g><g fill="#3579bc" fill-opacity="1"><g transform="translate(146.056552, 372.513342)"><g><path d="M 4.34375 0.140625 C 3.6875 0.140625 3.113281 0.0234375 2.625 -0.203125 C 2.132812 -0.429688 1.726562 -0.738281 1.40625 -1.125 C 1.082031 -1.519531 0.84375 -1.96875 0.6875 -2.46875 C 0.53125 -2.976562 0.453125 -3.515625 0.453125 -4.078125 C 0.453125 -4.628906 0.53125 -5.15625 0.6875 -5.65625 C 0.84375 -6.164062 1.082031 -6.613281 1.40625 -7 C 1.726562 -7.394531 2.132812 -7.703125 2.625 -7.921875 C 3.113281 -8.148438 3.6875 -8.265625 4.34375 -8.265625 C 5.007812 -8.265625 5.582031 -8.148438 6.0625 -7.921875 C 6.550781 -7.703125 6.957031 -7.394531 7.28125 -7 C 7.601562 -6.613281 7.84375 -6.164062 8 -5.65625 C 8.15625 -5.15625 8.234375 -4.628906 8.234375 -4.078125 C 8.234375 -3.515625 8.15625 -2.976562 8 -2.46875 C 7.84375 -1.96875 7.601562 -1.519531 7.28125 -1.125 C 6.957031 -0.738281 6.550781 -0.429688 6.0625 -0.203125 C 5.582031 0.0234375 5.007812 0.140625 4.34375 0.140625 Z M 4.34375 -1.078125 C 4.882812 -1.078125 5.335938 -1.203125 5.703125 -1.453125 C 6.078125 -1.710938 6.359375 -2.066406 6.546875 -2.515625 C 6.742188 -2.972656 6.84375 -3.492188 6.84375 -4.078125 C 6.84375 -4.648438 6.742188 -5.160156 6.546875 -5.609375 C 6.359375 -6.054688 6.078125 -6.40625 5.703125 -6.65625 C 5.335938 -6.914062 4.882812 -7.046875 4.34375 -7.046875 C 3.8125 -7.046875 3.359375 -6.914062 2.984375 -6.65625 C 2.609375 -6.40625 2.328125 -6.054688 2.140625 -5.609375 C 1.953125 -5.160156 1.859375 -4.648438 1.859375 -4.078125 C 1.859375 -3.492188 1.953125 -2.972656 2.140625 -2.515625 C 2.328125 -2.066406 2.609375 -1.710938 2.984375 -1.453125 C 3.359375 -1.203125 3.8125 -1.078125 4.34375 -1.078125 Z M 4.34375 -1.078125 "/></g></g></g><g fill="#3579bc" fill-opacity="1"><g transform="translate(163.288686, 372.513342)"><g><path d="M 4.03125 0 L 2.6875 0 L 2.6875 -6.921875 L 0.125 -6.921875 L 0.125 -8.125 L 6.625 -8.125 L 6.625 -6.921875 L 4.03125 -6.921875 Z M 4.03125 0 "/></g></g></g><g fill="#3579bc" fill-opacity="1"><g transform="translate(178.549301, 372.513342)"><g><path d="M 2.109375 0 L 0.75 0 L 0.75 -8.125 L 2.109375 -8.125 L 2.109375 -4.671875 L 5.78125 -4.671875 L 5.78125 -8.125 L 7.140625 -8.125 L 7.140625 0 L 5.78125 0 L 5.78125 -3.46875 L 2.109375 -3.46875 Z M 2.109375 0 "/></g></g></g><g fill="#3579bc" fill-opacity="1"><g transform="translate(194.99283, 372.513342)"><g/></g></g><g fill="#3579bc" fill-opacity="1"><g transform="translate(206.416986, 372.513342)"><g><path d="M 4.328125 0.140625 C 3.660156 0.140625 3.082031 0.0234375 2.59375 -0.203125 C 2.113281 -0.429688 1.710938 -0.738281 1.390625 -1.125 C 1.078125 -1.519531 0.84375 -1.96875 0.6875 -2.46875 C 0.53125 -2.976562 0.453125 -3.515625 0.453125 -4.078125 C 0.453125 -4.628906 0.53125 -5.15625 0.6875 -5.65625 C 0.84375 -6.164062 1.078125 -6.613281 1.390625 -7 C 1.710938 -7.394531 2.113281 -7.703125 2.59375 -7.921875 C 3.082031 -8.148438 3.660156 -8.265625 4.328125 -8.265625 C 4.984375 -8.265625 5.550781 -8.15625 6.03125 -7.9375 C 6.507812 -7.71875 6.890625 -7.414062 7.171875 -7.03125 C 7.460938 -6.644531 7.644531 -6.195312 7.71875 -5.6875 L 6.25 -5.6875 C 6.15625 -6.125 5.9375 -6.457031 5.59375 -6.6875 C 5.25 -6.925781 4.820312 -7.046875 4.3125 -7.046875 C 3.769531 -7.046875 3.316406 -6.914062 2.953125 -6.65625 C 2.585938 -6.40625 2.3125 -6.054688 2.125 -5.609375 C 1.945312 -5.160156 1.859375 -4.648438 1.859375 -4.078125 C 1.859375 -3.492188 1.945312 -2.972656 2.125 -2.515625 C 2.3125 -2.054688 2.585938 -1.695312 2.953125 -1.4375 C 3.316406 -1.1875 3.769531 -1.0625 4.3125 -1.0625 C 4.820312 -1.0625 5.25 -1.1875 5.59375 -1.4375 C 5.9375 -1.695312 6.15625 -2.078125 6.25 -2.578125 L 7.71875 -2.578125 C 7.601562 -1.753906 7.25 -1.09375 6.65625 -0.59375 C 6.070312 -0.101562 5.296875 0.140625 4.328125 0.140625 Z M 4.328125 0.140625 "/></g></g></g><g fill="#3579bc" fill-opacity="1"><g transform="translate(223.041676, 372.513342)"><g><path d="M 1.5 0 L 0.09375 0 L 3 -8.125 L 4.5 -8.125 L 7.40625 0 L 6 0 L 5.40625 -1.78125 L 2.109375 -1.78125 Z M 3.75 -6.6875 L 2.5 -2.96875 L 5 -2.96875 Z M 3.75 -6.6875 "/></g></g></g><g fill="#3579bc" fill-opacity="1"><g transform="translate(239.069585, 372.513342)"><g><path d="M 5.34375 -3.546875 L 6.859375 0 L 5.390625 0 L 4.046875 -3.3125 L 2.109375 -3.3125 L 2.109375 0 L 0.75 0 L 0.75 -8.125 L 4.109375 -8.125 C 4.617188 -8.125 5.066406 -8.039062 5.453125 -7.875 C 5.835938 -7.707031 6.140625 -7.445312 6.359375 -7.09375 C 6.578125 -6.75 6.6875 -6.300781 6.6875 -5.75 C 6.6875 -5.207031 6.566406 -4.75 6.328125 -4.375 C 6.097656 -4.007812 5.769531 -3.734375 5.34375 -3.546875 Z M 2.109375 -6.921875 L 2.109375 -4.5 L 3.9375 -4.5 C 4.394531 -4.5 4.742188 -4.601562 4.984375 -4.8125 C 5.222656 -5.019531 5.34375 -5.320312 5.34375 -5.71875 C 5.34375 -6.101562 5.21875 -6.398438 4.96875 -6.609375 C 4.726562 -6.816406 4.382812 -6.921875 3.9375 -6.921875 Z M 2.109375 -6.921875 "/></g></g></g><g fill="#3579bc" fill-opacity="1"><g transform="translate(254.831082, 372.513342)"><g><path d="M 6.140625 0 L 0.75 0 L 0.75 -8.125 L 6.140625 -8.125 L 6.140625 -6.921875 L 2.109375 -6.921875 L 2.109375 -4.671875 L 5.6875 -4.671875 L 5.6875 -3.46875 L 2.109375 -3.46875 L 2.109375 -1.21875 L 6.140625 -1.21875 Z M 6.140625 0 "/></g></g></g><g clip-path="url(#3c32d9ecc4)"><path fill="#ffffff" d="M 280.222656 176.21875 C 279.777344 181.71875 279.578125 187.238281 279.660156 192.765625 C 279.878906 206.394531 282.359375 219.585938 281.308594 233.308594 C 279.222656 260.625 269.03125 287.347656 251.996094 308.84375 C 247.335938 314.726562 242.007812 320.367188 235.195312 323.507812 C 230.683594 325.589844 225 326.347656 221 323.394531 C 216.4375 320.03125 215.972656 313.511719 215.882812 307.847656 C 215.632812 291.457031 215.0625 274.871094 211.621094 258.914062 C 211.621094 258.914062 211.621094 258.914062 211.621094 258.90625 C 210.765625 254.929688 209.726562 250.992188 208.472656 247.109375 C 207.890625 245.304688 207.261719 243.515625 206.5625 241.742188 C 204.730469 237.09375 202.464844 232.621094 199.492188 228.644531 C 188.628906 212.078125 168.179688 193.164062 129.9375 184.292969 C 130.597656 184.53125 163.257812 196.421875 177.910156 215.886719 C 163.179688 216.488281 152.636719 236.484375 148.828125 249.25 C 143.730469 266.316406 143.027344 284.265625 142.164062 301.933594 C 141.816406 309.097656 143.734375 320.6875 135.617188 324.285156 C 132.316406 325.75 128.464844 325.496094 125.042969 324.347656 C 112.734375 320.214844 105.171875 308.210938 98.457031 297.875 C 85.738281 278.308594 77.855469 255.40625 76.496094 232.074219 C 76.054688 224.429688 76.3125 216.75 77.277344 209.152344 C 78.457031 199.90625 78.675781 190.757812 78.222656 181.761719 C 53.769531 191.082031 35.785156 203.480469 27.546875 217.546875 C 35.695312 199.476562 53.375 183.523438 77.433594 171.46875 C 106.625 156.832031 145.207031 147.925781 187.5 147.925781 C 222.433594 147.925781 254.839844 154 281.507812 164.363281 C 313.726562 176.882812 337.585938 195.660156 347.453125 217.546875 C 337.453125 200.46875 313.089844 185.851562 280.222656 176.21875 " fill-opacity="1" fill-rule="nonzero"/></g><path fill="#d9d9d9" d="M 297.570312 78.683594 C 293.40625 98.421875 287.417969 117.726562 283.679688 137.566406 C 282.851562 141.964844 282.117188 146.386719 281.507812 150.824219 C 254.839844 140.464844 222.433594 134.394531 187.5 134.394531 C 145.207031 134.394531 106.625 143.292969 77.433594 157.929688 C 72.085938 106.246094 47.789062 60.769531 61.511719 34.308594 C 65.40625 26.792969 70.613281 21.636719 76.644531 18.285156 C 76.820312 18.183594 77 18.085938 77.179688 17.988281 C 77.359375 17.890625 77.539062 17.800781 77.722656 17.707031 C 86.695312 13.089844 97.371094 12.246094 108.238281 13.375 C 143.683594 17.0625 173.820312 36.636719 201.175781 58.101562 C 214.335938 68.421875 227.128906 80.183594 242.730469 86.765625 C 248.410156 89.160156 256.890625 92.003906 262.285156 87.511719 C 259.976562 89.136719 247.011719 93.804688 199.628906 48.339844 C 192.957031 41.9375 185.644531 36.316406 177.964844 31.375 C 181.804688 31.507812 185.628906 31.140625 189.359375 30.058594 C 220.289062 21.089844 275.65625 -6.046875 296.578125 34.308594 C 303.566406 47.785156 300.554688 64.542969 297.570312 78.683594 " fill-opacity="1" fill-rule="nonzero"/><path fill="#c3b000" d="M 211.621094 258.90625 C 210.765625 254.929688 209.726562 250.992188 208.472656 247.109375 C 207.890625 245.304688 207.261719 243.515625 206.5625 241.742188 C 210.8125 251.601562 211.59375 258.6875 211.621094 258.90625 " fill-opacity="1" fill-rule="nonzero"/></svg>